<svg width="17" height="14" viewBox="0 0 17 14" fill="none" xmlns="http://www.w3.org/2000/svg">
<path fill-rule="evenodd" clip-rule="evenodd" d="M14.192 2.36325C14.8858 1.95133 15.3542 1.36129 15.5995 0.593133C14.9646 0.971648 14.2874 1.2277 13.567 1.37243C12.9332 0.693328 12.1539 0.359344 11.2281 0.359344C10.3434 0.359344 9.58857 0.671062 8.9636 1.2945C8.33975 1.91793 8.02671 2.6861 8.02671 3.56559C8.02671 3.81051 8.05336 4.05543 8.10664 4.30035C6.79788 4.23355 5.57126 3.9107 4.42457 3.30953C3.27788 2.71949 2.30547 1.92907 1.50623 0.949382C1.21539 1.43922 1.06997 1.98473 1.06997 2.56364C1.06997 3.12027 1.19874 3.62125 1.45627 4.09996C1.71381 4.56754 2.06126 4.94605 2.4964 5.2355C1.98133 5.21324 1.49957 5.07964 1.04999 4.83472V4.86812C1.04999 5.64742 1.2931 6.32652 1.77819 6.91655C2.2644 7.49546 2.87715 7.87397 3.61645 8.0187C3.33893 8.09663 3.05809 8.13003 2.77391 8.13003C2.58965 8.13003 2.38761 8.11889 2.17004 8.0855C2.37429 8.72006 2.7506 9.25444 3.30008 9.66635C3.84845 10.0783 4.46898 10.2898 5.16276 10.3121C3.99942 11.2249 2.67512 11.6814 1.18875 11.6814C0.904575 11.6814 0.647041 11.6703 0.415039 11.6369C1.90252 12.6054 3.54097 13.0841 5.33149 13.0841C6.46819 13.0841 7.53496 12.906 8.5329 12.5386C9.52973 12.1824 10.3823 11.6925 11.0894 11.0913C11.7965 10.479 12.4059 9.78881 12.9187 8.99838C13.4305 8.20796 13.8112 7.38413 14.0632 6.52691C14.3141 5.66968 14.4395 4.81246 14.4395 3.9441C14.4395 3.76598 14.4362 3.62125 14.4295 3.53219C15.0578 3.07574 15.5929 2.5191 16.0347 1.8734C15.4208 2.12946 14.8058 2.29645 14.192 2.36325Z" fill="#1A2762"/>
</svg>
